<mxfile host="app.diagrams.net" modified="2023-01-31T07:43:41.439Z" agent="5.0 (Windows NT 10.0; Win64; x64) AppleWebKit/537.36 (KHTML, like Gecko) Chrome/109.0.0.0 Safari/537.36" etag="4_LWoWnzhKHiz3yHiE87" version="20.8.13" type="github">
  <diagram id="6a731a19-8d31-9384-78a2-239565b7b9f0" name="Page-1">
    <mxGraphModel dx="1154" dy="499" grid="1" gridSize="10" guides="1" tooltips="1" connect="1" arrows="1" fold="1" page="1" pageScale="1" pageWidth="827" pageHeight="1169" background="none" math="0" shadow="0">
      <root>
        <mxCell id="0" />
        <mxCell id="1" parent="0" />
        <mxCell id="8H_wvWlRN94o7MlyfQas-2261" value="" style="shape=mxgraph.cisco.computers_and_peripherals.workstation;sketch=0;html=1;pointerEvents=1;dashed=0;fillColor=#036897;strokeColor=#ffffff;strokeWidth=2;verticalLabelPosition=bottom;verticalAlign=top;align=center;outlineConnect=0;" vertex="1" parent="1">
          <mxGeometry x="400" y="85" width="106" height="70" as="geometry" />
        </mxCell>
        <mxCell id="8H_wvWlRN94o7MlyfQas-2262" value="" style="shape=mxgraph.cisco.computers_and_peripherals.terminal;sketch=0;html=1;pointerEvents=1;dashed=0;fillColor=#036897;strokeColor=#ffffff;strokeWidth=2;verticalLabelPosition=bottom;verticalAlign=top;align=center;outlineConnect=0;" vertex="1" parent="1">
          <mxGeometry x="120" y="80" width="90" height="80" as="geometry" />
        </mxCell>
        <mxCell id="8H_wvWlRN94o7MlyfQas-2263" value="" style="shape=mxgraph.cisco.computers_and_peripherals.terminal;sketch=0;html=1;pointerEvents=1;dashed=0;fillColor=#036897;strokeColor=#ffffff;strokeWidth=2;verticalLabelPosition=bottom;verticalAlign=top;align=center;outlineConnect=0;" vertex="1" parent="1">
          <mxGeometry x="120" y="240" width="90" height="80" as="geometry" />
        </mxCell>
        <mxCell id="8H_wvWlRN94o7MlyfQas-2264" value="Host 1" style="text;html=1;align=center;verticalAlign=middle;resizable=0;points=[];autosize=1;strokeColor=none;fillColor=none;" vertex="1" parent="1">
          <mxGeometry x="140" y="50" width="60" height="30" as="geometry" />
        </mxCell>
        <mxCell id="8H_wvWlRN94o7MlyfQas-2265" value="Host 2" style="text;html=1;align=center;verticalAlign=middle;resizable=0;points=[];autosize=1;strokeColor=none;fillColor=none;" vertex="1" parent="1">
          <mxGeometry x="140" y="210" width="60" height="30" as="geometry" />
        </mxCell>
        <mxCell id="8H_wvWlRN94o7MlyfQas-2266" value="" style="shape=mxgraph.cisco.routers.router;sketch=0;html=1;pointerEvents=1;dashed=0;fillColor=#036897;strokeColor=#ffffff;strokeWidth=2;verticalLabelPosition=bottom;verticalAlign=top;align=center;outlineConnect=0;" vertex="1" parent="1">
          <mxGeometry x="710" y="93.5" width="78" height="53" as="geometry" />
        </mxCell>
        <mxCell id="8H_wvWlRN94o7MlyfQas-2271" value="" style="endArrow=none;html=1;rounded=0;entryX=0;entryY=0.5;entryDx=0;entryDy=0;entryPerimeter=0;" edge="1" parent="1" source="8H_wvWlRN94o7MlyfQas-2261" target="8H_wvWlRN94o7MlyfQas-2266">
          <mxGeometry width="50" height="50" relative="1" as="geometry">
            <mxPoint x="580" y="240" as="sourcePoint" />
            <mxPoint x="630" y="190" as="targetPoint" />
          </mxGeometry>
        </mxCell>
        <mxCell id="8H_wvWlRN94o7MlyfQas-2274" value="DHCP-Server" style="text;html=1;align=center;verticalAlign=middle;resizable=0;points=[];autosize=1;strokeColor=none;fillColor=none;" vertex="1" parent="1">
          <mxGeometry x="390" y="150" width="100" height="30" as="geometry" />
        </mxCell>
        <mxCell id="8H_wvWlRN94o7MlyfQas-2277" value="" style="endArrow=classic;html=1;rounded=0;exitX=1;exitY=0.5;exitDx=0;exitDy=0;exitPerimeter=0;" edge="1" parent="1" source="8H_wvWlRN94o7MlyfQas-2263" target="8H_wvWlRN94o7MlyfQas-2274">
          <mxGeometry width="50" height="50" relative="1" as="geometry">
            <mxPoint x="580" y="240" as="sourcePoint" />
            <mxPoint x="630" y="190" as="targetPoint" />
            <Array as="points">
              <mxPoint x="440" y="280" />
            </Array>
          </mxGeometry>
        </mxCell>
        <mxCell id="8H_wvWlRN94o7MlyfQas-2278" value="" style="endArrow=classic;html=1;rounded=0;exitX=1;exitY=0.5;exitDx=0;exitDy=0;exitPerimeter=0;" edge="1" parent="1" source="8H_wvWlRN94o7MlyfQas-2262" target="8H_wvWlRN94o7MlyfQas-2261">
          <mxGeometry width="50" height="50" relative="1" as="geometry">
            <mxPoint x="580" y="240" as="sourcePoint" />
            <mxPoint x="630" y="190" as="targetPoint" />
          </mxGeometry>
        </mxCell>
        <mxCell id="8H_wvWlRN94o7MlyfQas-2279" value="Router" style="text;html=1;align=center;verticalAlign=middle;resizable=0;points=[];autosize=1;strokeColor=none;fillColor=none;" vertex="1" parent="1">
          <mxGeometry x="719" y="155" width="60" height="30" as="geometry" />
        </mxCell>
      </root>
    </mxGraphModel>
  </diagram>
</mxfile>
